<?xml version="1.0" encoding="UTF-8" standalone="no"?>
<!DOCTYPE svg PUBLIC "-//W3C//DTD SVG 1.1//EN" "http://www.w3.org/Graphics/SVG/1.1/DTD/svg11.dtd">
<svg width="100%" height="100%" viewBox="0 0 1000 1000" version="1.1" xmlns="http://www.w3.org/2000/svg" xmlns:xlink="http://www.w3.org/1999/xlink" xml:space="preserve" xmlns:serif="http://www.serif.com/" style="fill-rule:evenodd;clip-rule:evenodd;stroke-linejoin:round;stroke-miterlimit:2;">
    <g transform="matrix(1.5227,0,0,1.63858,-179.596,-280.272)">
        <path d="M774.676,280.896C774.676,220.268 721.707,171.045 656.465,171.045L236.158,171.045C170.915,171.045 117.946,220.268 117.946,280.896L117.946,671.477C117.946,732.106 170.915,781.328 236.158,781.328L656.465,781.328C721.707,781.328 774.676,732.106 774.676,671.477L774.676,280.896Z" style="fill:rgb(91,159,221);"/>
    </g>
    <path d="M467.818,363.465C586.48,363.465 682.818,459.803 682.818,578.465C682.818,697.126 586.48,793.465 467.818,793.465C349.156,793.465 252.818,697.126 252.818,578.465C252.818,459.803 349.156,363.465 467.818,363.465ZM467.818,428.465C550.605,428.465 617.818,495.678 617.818,578.465C617.818,661.252 550.605,728.465 467.818,728.465C385.031,728.465 317.818,661.252 317.818,578.465C317.818,495.678 385.031,428.465 467.818,428.465Z" style="fill:white;"/>
    <g transform="matrix(1.04416,0,0,1.00618,-30.1449,-4.01418)">
        <rect x="617.565" y="143.342" width="65.072" height="655.91" style="fill:white;"/>
    </g>
</svg>
