<?xml version="1.0" encoding="UTF-8" standalone="no"?>
<!DOCTYPE svg PUBLIC "-//W3C//DTD SVG 1.1//EN" "http://www.w3.org/Graphics/SVG/1.1/DTD/svg11.dtd">
<svg width="100%" height="100%" viewBox="0 0 1024 1024" version="1.1" xmlns="http://www.w3.org/2000/svg" xmlns:xlink="http://www.w3.org/1999/xlink" xml:space="preserve" xmlns:serif="http://www.serif.com/" style="fill-rule:evenodd;clip-rule:evenodd;stroke-linejoin:round;stroke-miterlimit:2;">
    <g transform="matrix(2.90744,0,0,2.90744,512,512)">
        <g transform="matrix(1,0,0,1,-165.55,-176.1)">
            <clipPath id="_clip1">
                <rect x="0" y="0" width="331.1" height="352.2"/>
            </clipPath>
            <g clip-path="url(#_clip1)">
                <g id="Layer_2">
                    <g id="Layer_1-2">
                        <path d="M263.28,27.8L261.75,24.86C248.73,-0.06 220.2,-4 193.07,3.3C134.07,19.3 59.07,54.3 25.92,90.59C7,111.34 -7.64,133.84 4.36,159.26C8.72,168.49 21.43,181.6 33.58,187.79C51.95,197.14 91.09,208.44 121.86,211.71C131.94,212.78 142.7,213.15 151.55,208.24C160.4,203.33 166.08,192.44 160.81,183.79C156.27,176.34 147.89,173.79 144.05,165.97C141.44,160.64 141.93,154.97 145.16,149.25C148.39,143.53 156.53,136.3 161.58,132.79C184.58,116.79 225.58,103.16 241.73,96.47C267.69,85.71 276.29,52.71 263.28,27.8Z" style="fill:rgb(51,102,255);fill-rule:nonzero;"/>
                        <path d="M67.82,324.4L69.36,327.34C82.36,352.26 110.9,356.25 138.03,348.9C197.03,332.9 272.03,297.9 305.18,261.61C324.18,240.86 338.74,218.36 326.74,192.94C322.38,183.71 309.67,170.6 297.52,164.41C279.15,155.06 240.01,143.76 209.24,140.49C199.17,139.42 188.4,139.05 179.55,143.96C170.7,148.87 165.02,159.76 170.29,168.41C174.83,175.86 183.22,178.41 187.05,186.23C189.66,191.56 189.17,197.23 185.94,202.95C182.71,208.67 174.57,215.95 169.52,219.41C146.52,235.41 105.52,249.04 89.38,255.73C63.41,266.49 54.81,299.49 67.82,324.4Z" style="fill:rgb(51,102,255);fill-rule:nonzero;"/>
                    </g>
                </g>
            </g>
        </g>
    </g>
</svg>
